HIERARCHY
ROOT Character1_Hips
{
  OFFSET -54.3092 91.1576 -145.522
  CHANNELS 6 Xposition Yposition Zposition Zrotation Xrotation Yrotation
  JOINT Character1_Spine
  {
    OFFSET 0 8.754 -1.339
    CHANNELS 3 Zrotation Xrotation Yrotation
    JOINT Character1_Spine1
    {
      OFFSET 0 10.855 -0.645
      CHANNELS 3 Zrotation Xrotation Yrotation
      JOINT Character1_LeftShoulder
      {
        OFFSET 1.467 27.745 1.178
        CHANNELS 3 Zrotation Xrotation Yrotation
        JOINT Character1_LeftArm
        {
          OFFSET 18.486 -1.858 0.275
          CHANNELS 3 Zrotation Xrotation Yrotation
          JOINT Character1_LeftForeArm
          {
            OFFSET 32.391 -1.079 3.409
            CHANNELS 3 Zrotation Xrotation Yrotation
            JOINT Character1_LeftHand
            {
              OFFSET 28.678 -2.281 2.112
              CHANNELS 3 Zrotation Xrotation Yrotation
              End Site
              {
                OFFSET -0.000241878 -0.00028536 -9.11487e-005
              }
            }
            JOINT L_Radius
            {
              OFFSET -8.94447e-005 -0.392541 -0.0893675
              CHANNELS 3 Zrotation Xrotation Yrotation
              End Site
              {
                OFFSET 0 0 0
              }
            }
          }
          JOINT L_Humerus
          {
            OFFSET 42.9881 15.7281 -23.1008
            CHANNELS 3 Zrotation Xrotation Yrotation
            End Site
            {
              OFFSET 0 0 0
            }
          }
        }
        JOINT L_Shoulder
        {
          OFFSET 3.24498e-005 -0.000608592 -0.000527677
          CHANNELS 3 Zrotation Xrotation Yrotation
          End Site
          {
            OFFSET 0 0 0
          }
        }
      }
      JOINT Character1_RightShoulder
      {
        OFFSET -1.467 27.745 1.178
        CHANNELS 3 Zrotation Xrotation Yrotation
        JOINT Character1_RightArm
        {
          OFFSET -18.486 -1.858 0.275
          CHANNELS 3 Zrotation Xrotation Yrotation
          JOINT Character1_RightForeArm
          {
            OFFSET -32.391 -1.079 3.409
            CHANNELS 3 Zrotation Xrotation Yrotation
            JOINT Character1_RightHand
            {
              OFFSET -28.678 -2.281 2.112
              CHANNELS 3 Zrotation Xrotation Yrotation
              End Site
              {
                OFFSET 0.000589556 -0.000254961 0.000258925
              }
            }
            JOINT R_Radius
            {
              OFFSET 0.000437123 -0.392512 -0.0890171
              CHANNELS 3 Zrotation Xrotation Yrotation
              End Site
              {
                OFFSET 0 0 0
              }
            }
          }
          JOINT R_Humerus
          {
            OFFSET -42.9874 15.7281 -23.1005
            CHANNELS 3 Zrotation Xrotation Yrotation
            End Site
            {
              OFFSET 0 0 0
            }
          }
        }
        JOINT R_Shoulder
        {
          OFFSET -3.24498e-005 -0.000608592 -0.000527677
          CHANNELS 3 Zrotation Xrotation Yrotation
          End Site
          {
            OFFSET 0 0 0
          }
        }
      }
      JOINT Character1_Neck
      {
        OFFSET 0 30.836 0.626
        CHANNELS 3 Zrotation Xrotation Yrotation
        JOINT Character1_Head
        {
          OFFSET 0 8.074 3.498
          CHANNELS 3 Zrotation Xrotation Yrotation
          End Site
          {
            OFFSET 0 -0.00153379 1.54668e-005
          }
        }
        JOINT Neck
        {
          OFFSET -0.967711 0.114399 -0.279529
          CHANNELS 3 Zrotation Xrotation Yrotation
          End Site
          {
            OFFSET 0 0 0
          }
        }
      }
      JOINT Torso
      {
        OFFSET 0 -0.000828813 -0.000380861
        CHANNELS 3 Zrotation Xrotation Yrotation
        End Site
        {
          OFFSET 0 0 0
        }
      }
    }
    JOINT Spine
    {
      OFFSET -0.414962 -0.0640881 -0.434932
      CHANNELS 3 Zrotation Xrotation Yrotation
      End Site
      {
        OFFSET 0 0 0
      }
    }
  }
  JOINT Character1_RightUpLeg
  {
    OFFSET -9.035 -4.63425 1.845
    CHANNELS 3 Zrotation Xrotation Yrotation
    JOINT Character1_RightLeg
    {
      OFFSET -0.919521 -40.345 1.155
      CHANNELS 3 Zrotation Xrotation Yrotation
      JOINT Character1_RightFoot
      {
        OFFSET 1.95452 -45.2655 -4.18888
        CHANNELS 3 Zrotation Xrotation Yrotation
        JOINT Character1_RightToeBase
        {
          OFFSET 1.87056 -6.69517 14.7145
          CHANNELS 3 Zrotation Xrotation Yrotation
          End Site
          {
            OFFSET 0 0 0
          }
        }
        JOINT R_Foot
        {
          OFFSET 8 -7.75529 4.18888
          CHANNELS 3 Zrotation Xrotation Yrotation
          End Site
          {
            OFFSET 0 0 0
          }
        }
      }
      JOINT R_Tibia
      {
        OFFSET 0 0 0
        CHANNELS 3 Zrotation Xrotation Yrotation
        End Site
        {
          OFFSET 0 0 0
        }
      }
    }
    JOINT R_Femur
    {
      OFFSET 0 0 0
      CHANNELS 3 Zrotation Xrotation Yrotation
      End Site
      {
        OFFSET 0 0 0
      }
    }
  }
  JOINT Character1_LeftUpLeg
  {
    OFFSET 9.035 -4.63425 1.845
    CHANNELS 3 Zrotation Xrotation Yrotation
    JOINT Character1_LeftLeg
    {
      OFFSET 0.919521 -40.345 1.155
      CHANNELS 3 Zrotation Xrotation Yrotation
      JOINT Character1_LeftFoot
      {
        OFFSET -1.95452 -45.2655 -4.18888
        CHANNELS 3 Zrotation Xrotation Yrotation
        JOINT Character1_LeftToeBase
        {
          OFFSET -1.87056 -6.69517 14.7145
          CHANNELS 3 Zrotation Xrotation Yrotation
          End Site
          {
            OFFSET 0 0 0
          }
        }
        JOINT L_Foot
        {
          OFFSET -8 -7.75529 4.18888
          CHANNELS 3 Zrotation Xrotation Yrotation
          End Site
          {
            OFFSET 0 0 0
          }
        }
      }
      JOINT L_Tibia
      {
        OFFSET 0 0 0
        CHANNELS 3 Zrotation Xrotation Yrotation
        End Site
        {
          OFFSET 0 0 0
        }
      }
    }
    JOINT L_Femur
    {
      OFFSET 0 0 0
      CHANNELS 3 Zrotation Xrotation Yrotation
      End Site
      {
        OFFSET 0 0 0
      }
    }
  }
  JOINT Pelvis
  {
    OFFSET 0 0 0
    CHANNELS 3 Zrotation Xrotation Yrotation
    End Site
    {
      OFFSET 0 0 0
    }
  }
}
MOTION
Frames:	11
Frame Time:	0.0416667
-54.3092 91.1576 -145.522 5.59967 0.0353954 -0.9189 3.28752e-016 1.86361e-017 -0 2.09716 2.70887 -9.07933 0.0832737 -0.000926676 -0.00510747 -77.5576 16.4738 -5.25915 20.7527 -0.489095 -29.1955 -0.635328 -0.00320428 -0.658427 7.95139e-015 20 -0 83 1.39149e-015 -85 4.96962e-016 3.97569e-016 -0 0.134687 0.00162941 0.0121148 79.9617 7.98932 -4.25281 -17.1624 3.10494 23.4144 0.679602 0.00386508 0.627355 -2.38542e-015 20 -0 -83 0 85 9.93923e-017 -3.97569e-016 -0 1.49089e-015 -7.95139e-016 -0 -2.26486 1.27403 -1.50176 -9.02375 2.10203 2.21654 1.49089e-015 -7.95139e-016 -0 -3.62729 5.50968 -7.59078 -4.37978 -34.8097 -0.123827 -0.431808 29.3607 -9.85281 -1.83612 5.07736 0.317004 -0.375603 -0.420772 0.0800223 9.47879e-023 0 -0 3.97569e-016 -7.95139e-016 -1.59028e-015 1.98785e-016 -1.27222e-014 2.98177e-016 -2.5025 9.0794 -6.38982 -0.283215 17.8359 -2.76677 -0.84561 -16.7011 0.844244 10.7034 -62.332 4.13853 -5.96354e-016 -1.59028e-015 -3.18055e-015 -7.95139e-016 3.18055e-015 1.59028e-015 3.97569e-016 -1.59028e-015 -0 3.28752e-016 1.86361e-017 -0 
-55.1918 91.5542 -140.563 4.41763 0.102565 -1.34657 1.38994e-016 -2.48481e-017 -3.97569e-016 2.5797 2.94892 -6.90724 0.111952 -0.000926676 -0.00510747 -77.2823 17.3711 -5.59413 19.3935 -0.63658 -27.8431 -0.575229 -0.00320433 -0.573758 -3.6132e-015 20 -3.38468e-015 83 -1.39149e-015 -85 4.47266e-016 0 -1.59028e-015 0.153047 0.00162941 0.0121148 80.8332 5.5344 -4.44824 -17.2972 2.88224 23.6571 0.673253 0.00386507 0.642766 3.67752e-015 20 -0 -83 0 85 1.14301e-015 3.97569e-016 -1.59028e-015 -4.96962e-016 -7.95139e-016 -1.59028e-015 -1.58386 1.06933 -3.18617 -8.69894 0.934379 1.48155 -4.96962e-016 -7.95139e-016 -1.59028e-015 -1.99092 5.42231 -6.61354 -2.00153 -33.2972 1.90121 0.0400994 30.8768 -6.1406 -1.64795 2.10806 0.121092 -0.737024 -0.814453 0.247168 -2.91188e-019 0 -7.95139e-016 -2.98177e-016 3.97569e-016 -1.59028e-015 -2.23633e-016 -3.18055e-015 -1.49089e-016 -0.704386 8.54897 -8.01756 -0.47618 22.0718 -5.18162 -6.16906 -8.48069 0.629007 82.3087 -82.1383 77.103 -7.95139e-016 3.18055e-015 -0 -7.95139e-016 3.18055e-015 1.59028e-015 -3.97569e-016 0 -1.59028e-015 1.38994e-016 -2.48481e-017 -3.97569e-016 
-56.0573 91.8857 -135.593 2.91428 -0.129846 -2.78891 -1.55301e-017 -2.48481e-017 -7.95139e-016 3.5752 3.00664 -5.30822 0.104755 -0.000926676 -0.00535291 -78.3292 16.1055 -4.33359 18.7925 -0.121169 -26.8846 -0.577779 -0.00320433 -0.572359 -2.7479e-015 20 3.38468e-015 83 1.2424e-016 -85 -1.68967e-015 0 -0 0.130936 0.00162941 0.0121148 81.2618 4.79485 -4.36727 -17.0763 2.8872 23.403 0.665999 0.00386507 0.638184 3.04608e-015 20 -3.38468e-015 -83 0 85 -2.98177e-016 0 -0 1.09332e-015 0 3.18055e-015 -1.3314 0.89722 -3.71911 -8.04453 0.30374 0.825219 1.09332e-015 0 3.18055e-015 -0.232156 5.21294 -6.1058 0.758401 -30.7951 2.60706 0.278054 32.2951 -4.13636 -2.47148 -1.56928 -0.0255629 -0.875781 -0.93221 0.472009 3.03321e-021 2.42657e-020 -0 -6.70898e-016 3.97569e-016 7.95139e-016 -8.94531e-016 -1.27222e-014 9.93923e-017 0.990603 6.38959 -7.34413 -0.690476 29.1862 -8.67254 -6.11052 0.267781 0.719561 159.603 -57.9839 127.337 1.85384e-030 2.22639e-014 -4.77083e-015 3.18055e-015 0 1.59028e-015 3.97569e-016 -1.59028e-015 3.18055e-015 -1.55301e-017 -2.48481e-017 -7.95139e-016 
-57.0549 92.0501 -130.929 1.65063 -0.609005 -2.9027 -1.86361e-017 -2.98177e-016 3.97569e-016 5.0084 3.12621 -5.64635 0.0966599 -0.000926675 -0.0170384 -80.2636 14.5236 -2.57049 18.3747 0.910556 -25.8467 -0.614733 -0.00320431 -0.610712 2.7479e-015 20 -3.38468e-015 83 -1.39149e-015 -85 -6.95746e-016 0 -3.18055e-015 0.11727 0.00162941 0.0241724 80.5485 6.29585 -4.39947 -17.1942 2.97587 23.4917 0.675233 0.00386506 0.65079 5.61273e-016 20 -3.38468e-015 -83 -3.18055e-015 85 -4.96962e-016 0 -0 2.48481e-016 3.97569e-016 1.59028e-015 -1.67028 1.47403 -4.77208 -8.65756 0.301854 0.582144 2.48481e-016 3.97569e-016 1.59028e-015 0.950123 5.4408 -6.50537 3.19502 -27.74 3.35023 0.323242 33.5496 -4.218 -3.19817 -5.30449 -0.235257 -0.797704 -0.806385 0.553402 -1.21329e-020 -3.88251e-019 7.95139e-016 -9.93923e-017 -1.59028e-015 -7.95139e-016 -7.45443e-017 6.36111e-015 -3.23025e-016 3.49613 1.50523 -5.65706 -1.12292 37.6456 -15.0009 -6.31447 14.857 0.903711 163.211 -37.81 127.864 0 6.36111e-015 -0 3.53113e-031 6.36111e-015 -3.18055e-015 -4.84538e-016 -9.93923e-017 -1.59028e-015 -1.86361e-017 -2.98177e-016 3.97569e-016 
-58.07 92.4572 -126.605 -0.899835 -0.883249 -2.36228 -3.72721e-016 0 -0 7.00624 3.88115 -5.47696 0.0547845 -0.000926675 -0.0381551 -80.517 15.3744 -2.29498 18.3209 2.22866 -25.0992 -0.67929 -0.00320427 -0.678305 -3.18055e-015 20 -0 83 -7.95139e-016 -85 -1.14301e-015 -7.95139e-016 -0 0.046328 0.00162941 0.0468986 80.3768 6.96252 -3.30539 -17.1215 3.11197 23.3405 0.680137 0.00386505 0.66396 3.11039e-015 20 -6.76935e-015 -83 -7.95139e-016 85 -2.98177e-016 -3.97569e-016 -3.18055e-015 -4.96962e-016 3.97569e-016 1.59028e-015 -0.701003 0.474624 -5.2067 -8.5013 0.14572 0.214606 -4.96962e-016 3.97569e-016 1.59028e-015 3.28103 6.05202 -5.83505 6.61061 -23.2846 3.99246 0.460096 32.0419 -5.93158 -3.75657 -7.91233 -0.410164 -0.83767 -0.865582 0.527708 -7.58303e-022 0 -0 1.59028e-015 -3.18055e-015 1.59028e-015 -1.2921e-015 -6.36111e-015 1.98785e-016 7.46608 -5.6056 -4.08751 -1.27996 47.5742 -20.5305 -6.59053 22.496 1.06898 15.9602 -13.9888 2.17992 -0 0 3.18055e-015 0 0 -1.59028e-015 6.95746e-016 -7.95139e-016 -7.95139e-016 -3.72721e-016 0 -0 
-58.6812 92.6116 -122.746 -1.18396 -1.06438 -4.59529 1.61513e-016 1.98785e-016 -0 6.62925 4.66986 -2.45973 0.0396842 -0.000926675 -0.042428 -81.1202 15.7038 -2.00101 18.2667 3.93915 -24.2136 -0.76289 -0.0032042 -0.776498 2.31525e-015 20 -6.76935e-015 83 0 -85 -8.94531e-016 0 -7.95139e-016 0.0270282 0.00162941 0.0506682 80.0543 7.04339 -1.85948 -17.1742 3.46414 23.233 0.700324 0.00386503 0.690965 3.6132e-015 20 3.38468e-015 -83 -2.38542e-015 85 8.44835e-016 -7.95139e-016 7.95139e-016 -5.96354e-016 -3.97569e-016 7.95139e-016 -0.121331 -0.241581 -6.3189 -8.64253 0.587171 -0.138697 -5.96354e-016 -3.97569e-016 7.95139e-016 3.54249 7.01436 -4.87249 7.4498 -20.4594 4.53262 0.648922 31.8996 -4.64773 -4.53242 -10.208 -0.586028 -0.866321 -0.932905 0.416918 4.97447e-019 -1.94126e-019 7.95139e-016 -7.95139e-016 1.59028e-015 -0 -3.35449e-016 -1.27222e-014 1.98785e-016 9.09853 -12.1982 0.140864 0.431583 55.9852 -17.5451 -6.492 14.898 0.943243 -0.0992138 -6.88294 0.103199 -1.59028e-015 9.54166e-015 7.95139e-016 -1.59028e-015 -6.36111e-015 -4.77083e-015 1.78906e-015 -4.77083e-015 7.95139e-016 1.61513e-016 1.98785e-016 -0 
-59.3462 92.7484 -118.862 -1.44512 -0.80816 -4.79708 4.09993e-016 1.98785e-016 -0 6.34948 4.55352 -1.50638 0.0373982 -0.000926675 -0.0141754 -82.0434 15.7493 -1.23029 17.8137 3.80688 -23.7814 -0.74016 -0.00320422 -0.74484 -1.15763e-015 20 3.38468e-015 83 -7.95139e-016 -85 -0 0 7.95139e-016 0.0192486 0.00162941 0.0236539 79.7202 7.63446 -0.542989 -17.1134 3.06438 23.3485 0.678011 0.00386505 0.668913 4.77083e-015 20 -0 -83 -7.95139e-016 85 -1.19271e-015 7.95139e-016 -0 -4.47266e-016 0 -0 0.265433 0.284597 -6.71372 -8.50883 0.70353 -0.281362 -4.47266e-016 0 -0 3.35281 7.03178 -4.29685 8.15229 -17.6909 4.68908 0.54095 31.3561 -5.04804 -4.79949 -12.6556 -0.799095 -0.853414 -0.938669 0.358409 2.27491e-021 -6.06643e-021 7.95139e-016 -9.93923e-016 -6.36111e-015 2.38542e-015 -2.96935e-015 -3.18055e-015 7.45443e-016 10.9421 -18.5339 2.82173 2.30232 59.6244 -13.3181 -6.4198 8.57006 0.850182 0.0155336 -10.5296 0.182844 -1.59028e-015 3.18055e-015 -7.95139e-016 1.59028e-015 1.90833e-014 -3.18055e-015 5.96354e-016 6.36111e-015 3.97569e-016 4.09993e-016 1.98785e-016 -0 
-59.8101 92.5752 -114.957 -1.91392 -0.76039 -5.52391 7.45443e-016 9.93923e-017 -0 6.15286 4.79551 -0.0296721 0.00175477 -0.000926675 -0.0281088 -82.835 16.0581 -0.0460482 18.2778 3.46265 -24.453 -0.738234 -0.00320422 -0.742602 -7.08609e-015 20 6.76935e-015 83 7.95139e-016 -85 8.44835e-016 7.95139e-016 -1.59028e-015 -0.0199048 0.00162941 0.0345262 79.3053 9.73228 0.730614 -17.0576 0.972205 24.3272 0.56717 0.00386514 0.544144 -9.03885e-015 20 1.0154e-014 -83 -7.95139e-016 85 -4.96962e-016 3.97569e-016 7.95139e-016 4.47266e-016 0 1.59028e-015 0.369833 0.907558 -7.01672 -8.69541 0.606661 -0.519096 4.47266e-016 0 1.59028e-015 3.84485 7.27845 -3.4962 8.83599 -14.7709 4.46158 0.385398 31.2272 -5.15845 -4.96579 -15.4381 -1.05171 -0.813901 -0.891802 0.31177 3.57919e-019 -9.70628e-020 -0 1.98785e-016 -1.59028e-015 -7.95139e-016 5.46658e-016 0 -0 12.5129 -23.0888 4.86834 2.76373 58.9294 -10.2639 -6.34132 4.40839 0.789249 0.00488147 -6.51182 0.110863 0 0 -0 -8.82781e-032 3.18055e-015 1.59028e-015 4.96962e-016 6.36111e-015 -1.2921e-015 7.45443e-016 9.93923e-017 -0 
-60.1793 92.1484 -111.136 -2.77683 -0.5277 -5.88925 2.73329e-016 9.93923e-017 -0 6.49106 4.98729 0.662551 -0.0424057 -0.000926675 -0.0415886 -83.4799 16.8415 0.85412 16.5645 0.476909 -24.0214 -0.520847 -0.00320437 -0.48762 4.3265e-016 20 3.38468e-015 83 0 -85 1.19271e-015 0 -7.95139e-016 -0.0647701 0.00162941 0.0436751 78.6607 12.3703 2.28168 -17.4477 -0.746774 25.7288 0.492226 0.00386518 0.469947 7.95139e-016 20 -0 -83 3.97569e-016 85 9.44227e-016 7.95139e-016 7.95139e-016 -1.63997e-015 -7.95139e-016 -0 0.195514 0.652093 -7.20298 -8.74827 1.02645 -0.513712 -1.63997e-015 -7.95139e-016 -0 4.66872 7.55444 -3.34843 9.88165 -12.2644 4.34911 0.123368 31.2991 -5.72924 -4.75776 -18.178 -1.28654 -0.780403 -0.858917 0.277273 -0 0 1.59028e-015 -1.19271e-015 0 7.95139e-016 2.08724e-015 -1.59028e-015 -5.96354e-016 13.856 -26.496 5.68815 2.336 54.531 -6.2255 -6.3086 1.63859 0.753788 3.31352 -16.3404 0.219323 -3.97569e-016 0 3.97569e-016 -1.19271e-015 0 -0 2.98177e-016 0 -9.93923e-016 2.73329e-016 9.93923e-017 -0 
-60.4498 91.9267 -107.448 -3.52476 0.214874 -6.61031 -8.69683e-016 0 1.59028e-015 7.03528 4.42649 1.75514 -0.0836827 -0.000926675 -0.0206731 -84.3781 16.3263 1.67893 16.5576 0.71722 -23.8845 -0.533581 -0.00320437 -0.502196 -9.10901e-015 20 3.38468e-015 83 2.38542e-015 -85 4.47266e-016 1.59028e-015 -1.59028e-015 -0.102484 0.00162941 0.02124 77.6931 15.1467 3.2154 -17.4872 -3.41226 27.4423 0.35312 0.00386525 0.32586 -3.54304e-015 20 3.38468e-015 -83 -3.97569e-016 85 -9.93923e-016 7.95139e-016 -0 9.44227e-016 -7.95139e-016 -0 -0.358227 0.339658 -7.27406 -8.80853 0.841529 -0.567019 9.44227e-016 -7.95139e-016 -0 5.58164 7.46368 -3.00035 10.7526 -9.70613 4.79933 -0.0471445 30.1023 -6.02459 -4.55961 -20.1071 -1.4427 -0.652699 -0.72343 0.191653 3.88251e-019 -1.94126e-019 3.18055e-015 7.95139e-016 0 -2.38542e-015 -1.98785e-016 0 -0 14.7678 -28.5836 6.05739 1.73726 46.3918 -0.172637 -6.3199 -1.70034 0.71683 1.04583 -40.4305 0.166063 -1.98785e-016 0 3.97569e-016 3.32964e-015 6.36111e-015 -2.98177e-016 -1.68967e-015 9.54166e-015 -0 -8.69683e-016 0 1.59028e-015 
-60.6178 91.9517 -103.703 -3.95549 1.09523 -6.67192 1.54058e-015 0 1.59028e-015 7.3384 4.04012 2.16869 -0.119549 -0.000926675 -0.00771921 -84.9718 15.5357 1.83349 18.2485 3.31167 -24.4914 -0.729895 -0.00320423 -0.730386 -3.18055e-015 20 -0 83 -1.59028e-015 -85 -5.96354e-016 -7.95139e-016 -7.95139e-016 -0.132744 0.00162941 0.00592342 76.4836 16.6347 4.73686 -17.6756 -4.80044 28.63 0.2883 0.00386527 0.258695 5.13332e-015 20 -3.38468e-015 -83 -3.97569e-016 85 -1.44119e-015 7.95139e-016 -0 1.49089e-016 0 -0 -0.646221 -0.245952 -6.82249 -8.8945 0.0886965 -0.400988 1.49089e-016 0 -0 6.3503 7.10759 -2.82589 11.0625 -6.51001 4.79356 -0.179213 27.2905 -6.39954 -4.30032 -21.3339 -1.52582 -0.582471 -0.648525 0.156837 -5.26179e-039 1.89576e-022 1.59028e-015 -3.97569e-016 0 -0 6.95746e-016 1.59028e-015 -0 14.4266 -29.1704 3.85538 1.12438 35.0325 4.46271 -6.43339 -3.81369 0.699387 -0.0324358 -7.0362 0.0321448 -3.10601e-016 -1.98785e-016 -0 1.46604e-015 7.95139e-016 -3.97569e-016 -3.97569e-016 0 -1.59028e-015 1.54058e-015 0 1.59028e-015 
